  0
SECTION
  2
HEADER
  9
$ACADVER
  1
AC1014
  9
$HANDSEED
  5
FFFF
  9
$MEASUREMENT
 70
     1
  0
ENDSEC
  0
SECTION
  2
TABLES
  0
TABLE
  2
VPORT
  5
8
330
0
100
AcDbSymbolTable
 70
     4
  0
VPORT
  5
2E
330
8
100
AcDbSymbolTableRecord
100
AcDbViewportTableRecord
  2
*ACTIVE
 70
     0
 10
0.0
 20
0.0
 11
1.0
 21
1.0
 12
210.0
 22
148.5
 13
0.0
 23
0.0
 14
10.0
 24
10.0
 15
10.0
 25
10.0
 16
0.0
 26
0.0
 36
1.0
 17
0.0
 27
0.0
 37
0.0
 40
341.0
 41
1.24
 42
50.0
 43
0.0
 44
0.0
 50
0.0
 51
0.0
 71
     0
 72
   100
 73
     1
 74
     3
 75
     0
 76
     0
 77
     0
 78
     0
  0
ENDTAB
  0
TABLE
  2
LTYPE
  5
5
330
0
100
AcDbSymbolTable
 70
     1
  0
LTYPE
  5
14
330
5
100
AcDbSymbolTableRecord
100
AcDbLinetypeTableRecord
  2
BYBLOCK
 70
     0
  3

 72
    65
 73
     0
 40
0.0
  0
LTYPE
  5
15
330
5
100
AcDbSymbolTableRecord
100
AcDbLinetypeTableRecord
  2
BYLAYER
 70
     0
  3

 72
    65
 73
     0
 40
0.0
  0
LTYPE
  5
16
330
5
100
AcDbSymbolTableRecord
100
AcDbLinetypeTableRecord
  2
CONTINUOUS
 70
     0
  3
Solid line
 72
    65
 73
     0
 40
0.0
  0
ENDTAB
  0
TABLE
  2
LAYER
  5
2
100
AcDbSymbolTable
 70
1
  0
LAYER
  5
50
100
AcDbSymbolTableRecord
100
AcDbLayerTableRecord
  2
0
 70
0
  6
CONTINUOUS
  0
ENDTAB
  0
TABLE
  2
STYLE
  5
3
330
0
100
AcDbSymbolTable
 70
     1
  0
STYLE
  5
11
330
3
100
AcDbSymbolTableRecord
100
AcDbTextStyleTableRecord
  2
STANDARD
 70
     0
 40
0.0
 41
1.0
 50
0.0
 71
     0
 42
2.5
  3
txt
  4

  0
ENDTAB
  0
TABLE
  2
VIEW
  5
6
330
0
100
AcDbSymbolTable
 70
     0
  0
ENDTAB
  0
TABLE
  2
UCS
  5
7
330
0
100
AcDbSymbolTable
 70
     0
  0
ENDTAB
  0
TABLE
  2
APPID
  5
9
330
0
100
AcDbSymbolTable
 70
     2
  0
APPID
  5
12
330
9
100
AcDbSymbolTableRecord
100
AcDbRegAppTableRecord
  2
ACAD
 70
     0
  0
ENDTAB
  0
TABLE
  2
DIMSTYLE
  5
A
330
0
100
AcDbSymbolTable
 70
     1
  0
DIMSTYLE
105
27
330
A
100
AcDbSymbolTableRecord
100
AcDbDimStyleTableRecord
  2
ISO-25
 70
     0
  3

  4

  5

  6

  7

 40
1.0
 41
2.5
 42
0.625
 43
3.75
 44
1.25
 45
0.0
 46
0.0
 47
0.0
 48
0.0
140
2.5
141
2.5
142
0.0
143
0.03937007874016
144
1.0
145
0.0
146
1.0
147
0.625
 71
     0
 72
     0
 73
     0
 74
     0
 75
     0
 76
     0
 77
     1
 78
     8
170
     0
171
     3
172
     1
173
     0
174
     0
175
     0
176
     0
177
     0
178
     0
270
     2
271
     2
272
     2
273
     2
274
     3
340
11
275
     0
280
     0
281
     0
282
     0
283
     0
284
     8
285
     0
286
     0
287
     3
288
     0
  0
ENDTAB
  0
TABLE
  2
BLOCK_RECORD
  5
1
330
0
100
AcDbSymbolTable
 70
     1
  0
BLOCK_RECORD
  5
1F
330
1
100
AcDbSymbolTableRecord
100
AcDbBlockTableRecord
  2
*MODEL_SPACE
  0
BLOCK_RECORD
  5
1B
330
1
100
AcDbSymbolTableRecord
100
AcDbBlockTableRecord
  2
*PAPER_SPACE
  0
ENDTAB
  0
ENDSEC
  0
SECTION
  2
BLOCKS
  0
BLOCK
  5
20
330
1F
100
AcDbEntity
  8
0
100
AcDbBlockBegin
  2
*MODEL_SPACE
 70
     0
 10
0.0
 20
0.0
 30
0.0
  3
*MODEL_SPACE
  1

  0
ENDBLK
  5
21
330
1F
100
AcDbEntity
  8
0
100
AcDbBlockEnd
  0
BLOCK
  5
1C
330
1B
100
AcDbEntity
 67
     1
  8
0
100
AcDbBlockBegin
  2
*PAPER_SPACE
  1

  0
ENDBLK
  5
1D
330
1B
100
AcDbEntity
 67
     1
  8
0
100
AcDbBlockEnd
  0
ENDSEC
  0
SECTION
  2
ENTITIES
  0
LWPOLYLINE
  5
100
100
AcDbEntity
  8
0
 62
7
100
AcDbPolyline
 90
241
 70
0
 10
39.810972
 20
169.783125
 30
0.0
 10
37.409503
 20
169.806481
 30
0.0
 10
34.992813
 20
169.724426
 30
0.0
 10
32.572178
 20
169.532620
 30
0.0
 10
30.158875
 20
169.226723
 30
0.0
 10
27.764182
 20
168.802397
 30
0.0
 10
25.399375
 20
168.255302
 30
0.0
 10
23.075731
 20
167.581097
 30
0.0
 10
20.804526
 20
166.775444
 30
0.0
 10
18.597039
 20
165.834002
 30
0.0
 10
16.464545
 20
164.752433
 30
0.0
 10
14.418322
 20
163.526397
 30
0.0
 10
12.469647
 20
162.151554
 30
0.0
 10
10.629796
 20
160.623565
 30
0.0
 10
8.910047
 20
158.938090
 30
0.0
 10
7.321675
 20
157.090789
 30
0.0
 10
5.875959
 20
155.077324
 30
0.0
 10
4.195711
 20
152.924368
 30
0.0
 10
2.682235
 20
150.656759
 30
0.0
 10
1.307476
 20
148.294366
 30
0.0
 10
0.043382
 20
145.857061
 30
0.0
 10
-2.265037
 20
140.837190
 30
0.0
 10
-4.467459
 20
135.756106
 30
0.0
 10
-6.788320
 20
130.772769
 30
0.0
 10
-8.063302
 20
128.367431
 30
0.0
 10
-9.452058
 20
126.046139
 30
0.0
 10
-10.982642
 20
123.828765
 30
0.0
 10
-12.683110
 20
121.735176
 30
0.0
 10
-14.581515
 20
119.785245
 30
0.0
 10
-16.705912
 20
117.998840
 30
0.0
 10
-18.349902
 20
117.130345
 30
0.0
 10
-20.031786
 20
116.356113
 30
0.0
 10
-23.492470
 20
115.048297
 30
0.0
 10
-27.054426
 20
113.991115
 30
0.0
 10
-30.684114
 20
113.100285
 30
0.0
 10
-38.012532
 20
111.480564
 30
0.0
 10
-41.644183
 20
110.583114
 30
0.0
 10
-45.209409
 20
109.514897
 30
0.0
 10
-47.738226
 20
108.996055
 30
0.0
 10
-50.264626
 20
108.363366
 30
0.0
 10
-52.774539
 20
107.614440
 30
0.0
 10
-55.253895
 20
106.746884
 30
0.0
 10
-57.688623
 20
105.758306
 30
0.0
 10
-60.064652
 20
104.646314
 30
0.0
 10
-62.367913
 20
103.408516
 30
0.0
 10
-64.584334
 20
102.042521
 30
0.0
 10
-66.699847
 20
100.545935
 30
0.0
 10
-68.700379
 20
98.916368
 30
0.0
 10
-70.571861
 20
97.151427
 30
0.0
 10
-72.300223
 20
95.248720
 30
0.0
 10
-73.871394
 20
93.205855
 30
0.0
 10
-75.271303
 20
91.020441
 30
0.0
 10
-76.485880
 20
88.690084
 30
0.0
 10
-77.501056
 20
86.212394
 30
0.0
 10
-78.196935
 20
83.938447
 30
0.0
 10
-78.707886
 20
81.617682
 30
0.0
 10
-79.037302
 20
79.262911
 30
0.0
 10
-79.188574
 20
76.886946
 30
0.0
 10
-79.165096
 20
74.502599
 30
0.0
 10
-78.970260
 20
72.122684
 30
0.0
 10
-78.607459
 20
69.760011
 30
0.0
 10
-78.080084
 20
67.427394
 30
0.0
 10
-77.391529
 20
65.137645
 30
0.0
 10
-76.545186
 20
62.903576
 30
0.0
 10
-75.544447
 20
60.737999
 30
0.0
 10
-74.392706
 20
58.653728
 30
0.0
 10
-73.093354
 20
56.663573
 30
0.0
 10
-71.649785
 20
54.780348
 30
0.0
 10
-70.065390
 20
53.016865
 30
0.0
 10
-68.343563
 20
51.385936
 30
0.0
 10
-65.925018
 20
49.566885
 30
0.0
 10
-63.368820
 20
47.997505
 30
0.0
 10
-60.694076
 20
46.675548
 30
0.0
 10
-57.919892
 20
45.598765
 30
0.0
 10
-55.065374
 20
44.764908
 30
0.0
 10
-52.149629
 20
44.171729
 30
0.0
 10
-49.191765
 20
43.816980
 30
0.0
 10
-46.210887
 20
43.698413
 30
0.0
 10
-43.226102
 20
43.813779
 30
0.0
 10
-40.256517
 20
44.160831
 30
0.0
 10
-37.321238
 20
44.737321
 30
0.0
 10
-34.439373
 20
45.540999
 30
0.0
 10
-31.630027
 20
46.569619
 30
0.0
 10
-28.912308
 20
47.820931
 30
0.0
 10
-26.305322
 20
49.292689
 30
0.0
 10
-23.828175
 20
50.982643
 30
0.0
 10
-20.685451
 20
53.197191
 30
0.0
 10
-17.332884
 20
55.289889
 30
0.0
 10
-15.590418
 20
56.250058
 30
0.0
 10
-13.810502
 20
57.131179
 30
0.0
 10
-11.998139
 20
57.917058
 30
0.0
 10
-10.158332
 20
58.591500
 30
0.0
 10
-8.296084
 20
59.138312
 30
0.0
 10
-6.416399
 20
59.541296
 30
0.0
 10
-4.524280
 20
59.784260
 30
0.0
 10
-2.624730
 20
59.851008
 30
0.0
 10
-0.722753
 20
59.725345
 30
0.0
 10
1.176647
 20
59.391077
 30
0.0
 10
3.068469
 20
58.832008
 30
0.0
 10
4.947708
 20
58.031944
 30
0.0
 10
6.679372
 20
57.018206
 30
0.0
 10
8.216457
 20
55.860497
 30
0.0
 10
9.574261
 20
54.571945
 30
0.0
 10
10.768085
 20
53.165677
 30
0.0
 10
11.813228
 20
51.654820
 30
0.0
 10
12.724989
 20
50.052500
 30
0.0
 10
13.518666
 20
48.371845
 30
0.0
 10
14.209559
 20
46.625982
 30
0.0
 10
14.812968
 20
44.828037
 30
0.0
 10
15.344191
 20
42.991137
 30
0.0
 10
16.251277
 20
39.252983
 30
0.0
 10
17.053211
 20
35.516533
 30
0.0
 10
17.872387
 20
31.886804
 30
0.0
 10
18.231901
 20
30.517458
 30
0.0
 10
18.744279
 20
29.298636
 30
0.0
 10
19.396034
 20
28.223035
 30
0.0
 10
20.173681
 20
27.283352
 30
0.0
 10
21.063735
 20
26.472286
 30
0.0
 10
22.052710
 20
25.782534
 30
0.0
 10
23.127121
 20
25.206795
 30
0.0
 10
24.273483
 20
24.737764
 30
0.0
 10
25.478310
 20
24.368142
 30
0.0
 10
26.728117
 20
24.090624
 30
0.0
 10
29.308729
 20
23.782696
 30
0.0
 10
31.907437
 20
23.755561
 30
0.0
 10
34.416357
 20
23.950800
 30
0.0
 10
36.091660
 20
23.830431
 30
0.0
 10
37.669466
 20
23.503761
 30
0.0
 10
39.149801
 20
22.986798
 30
0.0
 10
40.532691
 20
22.295546
 30
0.0
 10
41.818163
 20
21.446012
 30
0.0
 10
43.006243
 20
20.454201
 30
0.0
 10
44.096958
 20
19.336119
 30
0.0
 10
45.090334
 20
18.107772
 30
0.0
 10
45.986398
 20
16.785166
 30
0.0
 10
46.785176
 20
15.384307
 30
0.0
 10
47.486694
 20
13.921200
 30
0.0
 10
48.090980
 20
12.411852
 30
0.0
 10
48.598058
 20
10.872268
 30
0.0
 10
49.007957
 20
9.318455
 30
0.0
 10
49.320701
 20
7.766417
 30
0.0
 10
49.536319
 20
6.232161
 30
0.0
 10
49.823053
 20
5.006604
 30
0.0
 10
50.184242
 20
3.826920
 30
0.0
 10
51.117443
 20
1.605699
 30
0.0
 10
52.310833
 20
-0.430446
 30
0.0
 10
53.739321
 20
-2.280456
 30
0.0
 10
55.377820
 20
-3.943276
 30
0.0
 10
57.201239
 20
-5.417846
 30
0.0
 10
59.184489
 20
-6.703111
 30
0.0
 10
61.302480
 20
-7.798012
 30
0.0
 10
63.530123
 20
-8.701492
 30
0.0
 10
65.842329
 20
-9.412493
 30
0.0
 10
68.214009
 20
-9.929960
 30
0.0
 10
70.620072
 20
-10.252833
 30
0.0
 10
73.035430
 20
-10.380056
 30
0.0
 10
75.434992
 20
-10.310571
 30
0.0
 10
77.793671
 20
-10.043320
 30
0.0
 10
80.086375
 20
-9.577248
 30
0.0
 10
82.329250
 20
-9.029404
 30
0.0
 10
84.515648
 20
-8.345532
 30
0.0
 10
86.643768
 20
-7.531862
 30
0.0
 10
88.711807
 20
-6.594622
 30
0.0
 10
90.717964
 20
-5.540039
 30
0.0
 10
92.660438
 20
-4.374343
 30
0.0
 10
94.537427
 20
-3.103761
 30
0.0
 10
96.347130
 20
-1.734522
 30
0.0
 10
98.087744
 20
-0.272854
 30
0.0
 10
99.757470
 20
1.275013
 30
0.0
 10
101.354504
 20
2.902853
 30
0.0
 10
102.877046
 20
4.604436
 30
0.0
 10
104.323293
 20
6.373535
 30
0.0
 10
105.691445
 20
8.203920
 30
0.0
 10
106.979700
 20
10.089364
 30
0.0
 10
108.186257
 20
12.023638
 30
0.0
 10
110.273053
 20
16.222766
 30
0.0
 10
111.208193
 20
18.382244
 30
0.0
 10
112.064884
 20
20.576865
 30
0.0
 10
112.838417
 20
22.803025
 30
0.0
 10
113.524086
 20
25.057123
 30
0.0
 10
114.117181
 20
27.335559
 30
0.0
 10
114.612995
 20
29.634730
 30
0.0
 10
115.006820
 20
31.951036
 30
0.0
 10
115.293949
 20
34.280874
 30
0.0
 10
115.469672
 20
36.620644
 30
0.0
 10
115.529282
 20
38.966743
 30
0.0
 10
115.468072
 20
41.315572
 30
0.0
 10
115.281333
 20
43.663527
 30
0.0
 10
114.964357
 20
46.007009
 30
0.0
 10
114.512437
 20
48.342415
 30
0.0
 10
114.296173
 20
50.031381
 30
0.0
 10
113.998049
 20
51.680427
 30
0.0
 10
113.172019
 20
54.866205
 30
0.0
 10
112.065937
 20
57.914651
 30
0.0
 10
110.711395
 20
60.840667
 30
0.0
 10
109.139982
 20
63.659155
 30
0.0
 10
107.383291
 20
66.385018
 30
0.0
 10
105.472911
 20
69.033159
 30
0.0
 10
103.440434
 20
71.618479
 30
0.0
 10
99.135551
 20
76.660268
 30
0.0
 10
94.721366
 20
81.629604
 30
0.0
 10
90.450608
 20
86.645705
 30
0.0
 10
88.447990
 20
89.208549
 30
0.0
 10
86.576002
 20
91.827791
 30
0.0
 10
85.198861
 20
93.955258
 30
0.0
 10
84.088037
 20
96.144490
 30
0.0
 10
83.222125
 20
98.388719
 30
0.0
 10
82.579723
 20
100.681179
 30
0.0
 10
82.139426
 20
103.015102
 30
0.0
 10
81.879831
 20
105.383721
 30
0.0
 10
81.779533
 20
107.780269
 30
0.0
 10
81.817130
 20
110.197978
 30
0.0
 10
81.971218
 20
112.630082
 30
0.0
 10
82.220392
 20
115.069813
 30
0.0
 10
82.918387
 20
119.945087
 30
0.0
 10
84.513654
 20
129.489404
 30
0.0
 10
84.551460
 20
132.206993
 30
0.0
 10
84.355931
 20
134.887896
 30
0.0
 10
83.937429
 20
137.523234
 30
0.0
 10
83.306317
 20
140.104128
 30
0.0
 10
82.472958
 20
142.621700
 30
0.0
 10
81.447715
 20
145.067071
 30
0.0
 10
80.240951
 20
147.431361
 30
0.0
 10
78.863029
 20
149.705692
 30
0.0
 10
77.324312
 20
151.881185
 30
0.0
 10
75.635162
 20
153.948961
 30
0.0
 10
73.805943
 20
155.900141
 30
0.0
 10
71.847018
 20
157.725846
 30
0.0
 10
69.768749
 20
159.417197
 30
0.0
 10
67.581499
 20
160.965316
 30
0.0
 10
65.295632
 20
162.361323
 30
0.0
 10
62.921509
 20
163.596340
 30
0.0
 10
60.193700
 20
164.892239
 30
0.0
 10
57.407919
 20
166.033976
 30
0.0
 10
54.570150
 20
167.023981
 30
0.0
 10
51.686379
 20
167.864687
 30
0.0
 10
48.762591
 20
168.558523
 30
0.0
 10
45.804770
 20
169.107920
 30
0.0
 10
42.818903
 20
169.515311
 30
0.0
 10
39.810972
 20
169.783125
 30
0.0
 10
39.810972
 20
169.783125
 30
0.0
  0
ENDSEC
  0
SECTION
  2
OBJECTS
  0
DICTIONARY
  5
C
330
0
100
AcDbDictionary
  3
ACAD_GROUP
350
D
  3
ACAD_MLINESTYLE
350
17
  0
DICTIONARY
  5
D
330
C
100
AcDbDictionary
  0
DICTIONARY
  5
1A
330
C
100
AcDbDictionary
  0
DICTIONARY
  5
17
330
C
100
AcDbDictionary
  3
STANDARD
350
18
  0
DICTIONARY
  5
19
330
C
100
AcDbDictionary
  0
ENDSEC
  0
EOF
